#!OML:ASF X:\für Bonn\!DataBase\2005_08_12_Daniel\c3d\Daniel.ASF
:FULLY-SPECIFIED
:DEGREES
143
root 4.25626 16.946 -2.38037 -326.848 -86.7596 317.673
lowerback 11.9555 -6.05865 10.6647
upperback 4.70693 -7.0338 -0.295404
thorax -2.94816 -3.54761 -5.18264
lowerneck 10.4917 14.1521 -5.28795
upperneck 16.6298 18.3742 -9.16385
head 3.85487 8.00616 -1.96158
rclavicle -6.92268e-014 3.06128e-014
rhumerus -44.9715 4.68142 -90.3633
rradius 63.9343
rwrist 9.63019
rhand -18.2756 27.8471
rfingers 7.12502
rthumb 8.00438 -1.98135
lclavicle -6.92268e-014 3.06128e-014
lhumerus -32.8359 -1.19299 88.9539
lradius 132.155
lwrist 11.3475
lhand -18.2276 -27.635
lfingers 7.12502
lthumb 8.0507 2.1917
rfemur -11.2517 -0.547602 24.8818
rtibia 42.7916
rfoot -32.6069 -16.5925
rtoes -3.21685
lfemur -0.776506 0.405478 -9.93839
ltibia 47.122
lfoot -33.2519 7.86155
ltoes -22.389
144
root 4.25956 16.9474 -2.35625 -328.991 -86.4355 320
lowerback 11.6864 -6.12033 10.7832
upperback 4.60578 -7.12068 -0.177808
thorax -2.92321 -3.59061 -5.12645
lowerneck 10.6446 14.2357 -5.46154
upperneck 15.876 18.3729 -9.01315
head 4.06189 8.07744 -2.11677
rclavicle -7.54388e-014 9.14409e-015
rhumerus -44.8612 5.02556 -90.8693
rradius 65.3734
rwrist 9.25491
rhand -18.5065 28.1372
rfingers 7.12502
rthumb 7.78152 -1.69959
lclavicle -7.54388e-014 9.14409e-015
lhumerus -33.2594 -0.873686 89.1234
lradius 132.142
lwrist 11.2704
lhand -18.3594 -27.7528
lfingers 7.12502
lthumb 7.92351 2.0787
rfemur -11.4232 -0.599521 24.8806
rtibia 42.7923
rfoot -32.7751 -16.7136
rtoes -3.22423
lfemur -0.801473 0.140234 -10.0142
ltibia 46.7454
lfoot -33.5945 7.95977
ltoes -22.1543
145
root 4.26477 16.9482 -2.3323 -330.59 -86.1138 321.783
lowerback 11.4459 -6.17629 10.8983
upperback 4.49217 -7.19657 -0.0594153
thorax -2.92455 -3.62972 -5.06655
lowerneck 10.5811 14.2723 -5.34792
upperneck 15.6321 18.4529 -9.16295
head 4.01442 8.14092 -2.18161
rclavicle 1.98785e-015 9.93923e-015
rhumerus -44.7844 5.34979 -91.3637
rradius 66.7814
rwrist 8.90972
rhand -18.6788 28.4755
rfingers 7.12502
rthumb 7.61522 -1.36737
lclavicle 1.98785e-015 9.93923e-015
lhumerus -33.6309 -0.643058 89.1882
lradius 132.095
lwrist 11.2233
lhand -18.5027 -27.8194
lfingers 7.12502
lthumb 7.78511 2.01723
rfemur -11.6094 -0.676979 24.8851
rtibia 42.795
rfoot -32.8907 -16.8473
rtoes -3.24689
lfemur -0.860805 -0.120751 -10.0853
ltibia 46.4206
lfoot -33.9179 8.04401
ltoes -21.9087
146
root 4.27 16.9498 -2.30849 -331.878 -85.8027 323.244
lowerback 11.2199 -6.22939 10.9878
upperback 4.38915 -7.27155 0.072547
thorax -2.91751 -3.6682 -4.97827
lowerneck 10.4725 14.3111 -5.25623
upperneck 15.4192 18.5426 -9.33396
head 3.98777 8.20311 -2.24628
rclavicle 1.12313e-014 -6.75868e-015
rhumerus -44.7116 5.76368 -91.8394
rradius 68.1774
rwrist 8.56637
rhand -18.8361 28.7149
rfingers 7.12502
rthumb 7.46333 -1.13345
lclavicle 1.12313e-014 -6.75868e-015
lhumerus -33.9125 -0.446062 89.2212
lradius 132.005
lwrist 11.1956
lhand -18.6607 -27.7935
lfingers 7.12502
lthumb 7.63262 2.04875
rfemur -11.7768 -0.739106 24.8818
rtibia 42.7873
rfoot -33.0154 -16.948
rtoes -3.20009
lfemur -0.931855 -0.39226 -10.1764
ltibia 46.1424
lfoot -34.2358 8.18244
ltoes -21.7849
147
root 4.27653 16.9518 -2.28402 -333.108 -85.5111 324.65
lowerback 11.0042 -6.2698 11.0614
upperback 4.2907 -7.33152 0.188513
thorax -2.90869 -3.69912 -4.9006
lowerneck 10.1274 14.2975 -4.88434
upperneck 15.6934 18.7071 -9.80426
head 3.71885 8.25315 -2.19407
rclavicle 1.69464e-014 -1.59028e-015
rhumerus -44.663 6.13987 -92.2965
rradius 69.5681
rwrist 8.20885
rhand -18.9113 28.9748
rfingers 7.12502
rthumb 7.39075 -0.876136
lclavicle 1.69464e-014 -1.59028e-015
lhumerus -34.1829 -0.332372 89.1925
lradius 131.926
lwrist 11.1664
lhand -18.8788 -27.7384
lfingers 7.12502
lthumb 7.42214 2.11141
rfemur -11.9502 -0.809942 24.8548
rtibia 42.7759
rfoot -33.1097 -17.0676
rtoes -3.28539
lfemur -1.03008 -0.650522 -10.2939
ltibia 45.9008
lfoot -34.5005 8.31824
ltoes -21.5378
148
root 4.28325 16.9539 -2.25905 -333.909 -85.2071 325.625
lowerback 10.793 -6.31376 11.1551
upperback 4.1958 -7.39454 0.31364
thorax -2.89973 -3.73166 -4.82384
lowerneck 10.0309 14.3309 -4.76959
upperneck 15.4549 18.7876 -9.97631
head 3.68708 8.31398 -2.25679
rclavicle 1.32689e-014 -3.97569e-014
rhumerus -44.628 6.5213 -92.7434
rradius 70.9059
rwrist 7.93805
rhand -18.9925 29.2211
rfingers 7.12502
rthumb 7.31239 -0.632557
lclavicle 1.32689e-014 -3.97569e-014
lhumerus -34.424 -0.217309 89.1159
lradius 131.839
lwrist 11.1243
lhand -19.024 -27.6807
lfingers 7.12502
lthumb 7.28202 2.17396
rfemur -12.118 -0.880238 24.8486
rtibia 42.7512
rfoot -33.1827 -17.1799
rtoes -3.2921
lfemur -1.14746 -0.944078 -10.3984
ltibia 45.6932
lfoot -34.7876 8.49096
ltoes -21.3143
149
root 4.2904 16.9577 -2.23336 -334.933 -84.9211 326.825
lowerback 10.5856 -6.34491 11.2079
upperback 4.10515 -7.44538 0.43491
thorax -2.88202 -3.75781 -4.73146
lowerneck 9.90908 14.3497 -4.62445
upperneck 15.252 18.86 -10.1799
head 3.6754 8.36741 -2.32932
rclavicle 2.73329e-015 -2.38542e-015
rhumerus -44.6272 6.89561 -93.1741
rradius 72.2675
rwrist 7.68233
rhand -19.0282 29.3648
rfingers 7.12502
rthumb 7.27791 -0.490073
lclavicle 2.73329e-015 -2.38542e-015
lhumerus -34.656 -0.12828 89.0173
lradius 131.751
lwrist 11.0434
lhand -19.172 -27.6346
lfingers 7.12502
lthumb 7.1391 2.22495
rfemur -12.2907 -1.00867 24.7918
rtibia 42.7149
rfoot -33.1948 -17.282
rtoes -3.32255
lfemur -1.3018 -1.24288 -10.5588
ltibia 45.516
lfoot -35.0219 8.74216
ltoes -21.2137
150
root 4.29728 16.9618 -2.20756 -335.638 -84.6505 327.71
lowerback 10.3809 -6.36478 11.2676
upperback 4.01863 -7.48131 0.551333
thorax -2.86005 -3.77637 -4.65095
lowerneck 9.78396 14.3707 -4.49461
upperneck 15.0365 18.93 -10.3513
head 3.65631 8.4212 -2.39057
rclavicle 4.8901e-014 -1.98785e-014
rhumerus -44.6072 7.23355 -93.598
rradius 73.5399
rwrist 7.47292
rhand -19.057 29.4749
rfingers 7.12502
rthumb 7.25017 -0.380912
lclavicle 4.8901e-014 -1.98785e-014
lhumerus -34.8375 -0.0511996 88.8751
lradius 131.638
lwrist 10.9678
lhand -19.2361 -27.6061
lfingers 7.12502
lthumb 7.07721 2.25562
rfemur -12.457 -1.16164 24.736
rtibia 42.6644
rfoot -33.1791 -17.3315
rtoes -3.33906
lfemur -1.47323 -1.53192 -10.7122
ltibia 45.3698
lfoot -35.2614 8.99896
ltoes -21.0946
151
root 4.30546 16.9669 -2.18139 -336.296 -84.3641 328.542
lowerback 10.1993 -6.38926 11.2978
upperback 3.93825 -7.52424 0.694035
thorax -2.83807 -3.79864 -4.52408
lowerneck 9.66677 14.3852 -4.36622
upperneck 14.8033 18.9926 -10.5831
head 3.63604 8.47001 -2.47019
rclavicle -2.44008e-014 8.74653e-015
rhumerus -44.5856 7.60036 -93.9802
rradius 74.7855
rwrist 7.32865
rhand -19.0829 29.4866
rfingers 7.12502
rthumb 7.22511 -0.370081
lclavicle -2.44008e-014 8.74653e-015
lhumerus -34.9978 0.0371003 88.7582
lradius 131.505
lwrist 10.8405
lhand -19.3131 -27.6214
lfingers 7.12502
lthumb 7.00292 2.24276
rfemur -12.6195 -1.31089 24.6823
rtibia 42.6031
rfoot -33.1651 -17.412
rtoes -3.2758
lfemur -1.6739 -1.84831 -10.8658
ltibia 45.2491
lfoot -35.4377 9.29517
ltoes -21.0356
152
root 4.31432 16.9728 -2.15459 -336.909 -84.0928 329.338
lowerback 10.0246 -6.39537 11.309
upperback 3.85402 -7.54371 0.842059
thorax -2.81698 -3.80953 -4.38499
lowerneck 9.56791 14.3838 -4.24374
upperneck 14.5325 19.0278 -10.8179
head 3.60006 8.50866 -2.5528
rclavicle -2.72335e-014 1.03368e-014
rhumerus -44.5449 7.93072 -94.3223
rradius 75.9848
rwrist 7.17179
rhand -19.1144 29.561
rfingers 7.12502
rthumb 7.1947 -0.29673
lclavicle -2.72335e-014 1.03368e-014
lhumerus -35.1544 0.0984918 88.6948
lradius 131.381
lwrist 10.7328
lhand -19.3117 -27.6669
lfingers 7.12502
lthumb 7.00425 2.19717
rfemur -12.7911 -1.48371 24.6131
rtibia 42.536
rfoot -33.1209 -17.4729
rtoes -3.30979
lfemur -1.90083 -2.1542 -11.0274
ltibia 45.1533
lfoot -35.622 9.59643
ltoes -20.9999
153
root 4.32386 16.9786 -2.12709 -337.354 -83.8211 329.964
lowerback 9.86671 -6.4064 11.3071
upperback 3.76993 -7.56904 1.00633
thorax -2.80186 -3.82386 -4.21947
lowerneck 9.43515 14.3883 -4.15595
upperneck 14.3048 19.072 -11.034
head 3.57875 8.54561 -2.62142
rclavicle 3.56818e-014 -2.54444e-014
rhumerus -44.4861 8.3173 -94.6499
rradius 77.1325
rwrist 7.05684
rhand -19.1889 29.6064
rfingers 7.12502
rthumb 7.12281 -0.253752
lclavicle 3.56818e-014 -2.54444e-014
lhumerus -35.2765 0.122744 88.6961
lradius 131.26
lwrist 10.6175
lhand -19.3647 -27.6841
lfingers 7.12502
lthumb 6.95315 2.18174
rfemur -12.9665 -1.66515 24.546
rtibia 42.4683
rfoot -33.0692 -17.5181
rtoes -3.27193
lfemur -2.13447 -2.4689 -11.188
ltibia 45.0746
lfoot -35.7885 9.92969
ltoes -21.0321
154
root 4.33466 16.9839 -2.09985 -337.802 -83.5608 330.596
lowerback 9.72454 -6.41158 11.286
upperback 3.68052 -7.586 1.15885
thorax -2.79886 -3.83463 -4.05554
lowerneck 9.36405 14.3804 -4.03098
upperneck 14.0218 19.0916 -11.2751
head 3.53526 8.57775 -2.70888
rclavicle 5.14852e-014 -2.54444e-014
rhumerus -44.4052 8.66052 -94.9684
rradius 78.2045
rwrist 7.02133
rhand -19.2297 29.7264
rfingers 7.12502
rthumb 7.08338 -0.13508
lclavicle 5.14852e-014 -2.54444e-014
lhumerus -35.442 0.0891166 88.674
lradius 131.199
lwrist 10.5449
lhand -19.3943 -27.6555
lfingers 7.12502
lthumb 6.9245 2.2113
rfemur -13.1538 -1.88125 24.466
rtibia 42.4058
rfoot -32.9801 -17.5503
rtoes -3.33292
lfemur -2.3805 -2.77967 -11.3483
ltibia 45.0109
lfoot -35.9347 10.225
ltoes -21.0366
155
root 4.34571 16.9893 -2.07222 -338.25 -83.3192 331.219
lowerback 9.61273 -6.41236 11.2506
upperback 3.58183 -7.59348 1.29755
thorax -2.82099 -3.84189 -3.89628
lowerneck 9.29333 14.3734 -3.85018
upperneck 13.7714 19.1199 -11.5197
head 3.5073 8.61425 -2.80324
rclavicle -8.0806e-014 3.73715e-014
rhumerus -44.3294 9.00486 -95.3023
rradius 79.2107
rwrist 6.90542
rhand -19.2551 29.9045
rfingers 7.12502
rthumb 7.05889 0.0421775
lclavicle -8.0806e-014 3.73715e-014
lhumerus -35.6363 0.00141029 88.6279
lradius 131.186
lwrist 10.4736
lhand -19.4227 -27.5292
lfingers 7.12502
lthumb 6.89711 2.33848
rfemur -13.3395 -2.08416 24.3676
rtibia 42.3539
rfoot -32.8967 -17.5535
rtoes -3.18444
lfemur -2.61746 -3.06888 -11.5183
ltibia 44.9516
lfoot -36.0697 10.5113
ltoes -21.1323
